<svg width="223" height="58" viewBox="0 0 223 58" fill="none" xmlns="http://www.w3.org/2000/svg">
<circle cx="21" cy="34" r="19.5" stroke="#FFC107" stroke-width="3"/>
<g clip-path="url(#clip0_4_64)">
<path d="M50.3281 3.59375C50.8707 4.11463 51.0369 4.79338 51.0605 5.52735C50.9488 9.0085 48.3302 12.1276 46.0735 14.556C45.9848 14.6529 45.8971 14.7508 45.8101 14.8491C45.3304 15.3903 44.8263 15.904 44.3146 16.4145C44.226 16.5031 44.1375 16.5918 44.0489 16.6805C43.8646 16.8649 43.6801 17.0492 43.4956 17.2333C43.2606 17.4679 43.026 17.7028 42.7915 17.9378C42.6091 18.1204 42.4265 18.3029 42.2439 18.4853C42.1574 18.5718 42.0709 18.6583 41.9844 18.745C41.5654 19.1647 41.1466 19.5806 40.6934 19.9639C40.552 20.0873 40.4204 20.2176 40.2891 20.3516C40.0625 20.5817 39.8253 20.7933 39.5807 21.004C39.3308 21.2247 39.0875 21.4522 38.8438 21.6797C38.5074 21.9934 38.1696 22.304 37.8211 22.6044C37.6436 22.759 37.47 22.9176 37.2959 23.0762C37.027 23.3192 36.7529 23.5519 36.4707 23.7793C36.1572 24.0328 35.8575 24.2959 35.5625 24.5703C35.2068 24.9008 34.8401 25.2127 34.462 25.5173C34.2 25.7312 33.9436 25.951 33.6875 26.1719C33.3021 26.5038 32.913 26.8303 32.5181 27.1509C32.3351 27.2999 32.1529 27.4496 31.9712 27.6001C31.3177 28.141 30.6593 28.6739 29.9899 29.1949C29.8616 29.2952 29.7337 29.396 29.6061 29.4971C28.3338 30.5038 27.0402 31.4807 25.7188 32.4219C25.6104 32.4995 25.5021 32.5771 25.3937 32.6547C24.5259 33.2742 23.6434 33.8711 22.75 34.4531C22.6844 34.4959 22.6187 34.5388 22.5511 34.5829C18.635 37.1187 18.635 37.1187 17.2031 37.0313C17.0518 36.9531 17.0518 36.9531 16.9688 36.7969C16.9417 36.3492 16.9881 36.0443 17.1641 35.625C17.185 35.575 17.206 35.525 17.2276 35.4734C17.4788 34.8855 17.7641 34.3151 18.0625 33.75C18.1054 33.6686 18.1054 33.6686 18.1491 33.5856C18.9282 32.1191 19.8431 30.7329 20.7969 29.375C20.8712 29.2684 20.9456 29.1618 21.02 29.0552C21.8202 27.9114 22.6454 26.7852 23.503 25.6837C23.624 25.5281 23.7444 25.3721 23.8648 25.2161C24.3531 24.5846 24.8471 23.9586 25.3526 23.3409C25.6241 23.0087 25.8901 22.6728 26.1533 22.334C26.4827 21.911 26.8259 21.5019 27.1768 21.0966C27.4098 20.8273 27.6382 20.5552 27.8623 20.2783C28.2231 19.8342 28.598 19.4032 28.9738 18.9719C29.184 18.7304 29.3923 18.4874 29.6 18.2437C29.9854 17.7915 30.3776 17.3474 30.7792 16.9095C30.929 16.7452 31.0761 16.5792 31.2217 16.4111C31.4898 16.1024 31.7667 15.8019 32.0437 15.5012C32.2384 15.2895 32.4306 15.0764 32.6182 14.8584C33.0172 14.3986 33.4384 13.9586 33.8548 13.5147C33.9947 13.365 34.1339 13.2148 34.2728 13.0643C34.7919 12.5028 35.3219 11.9555 35.8653 11.4175C36.1505 11.1341 36.4223 10.8452 36.6825 10.5383C37.0539 10.1163 37.4584 9.71956 37.8867 9.35547C38.1961 9.09138 38.4797 8.80448 38.7656 8.51563C39.1441 8.13412 39.5272 7.76908 39.9375 7.42188C40.0251 7.3451 40.1126 7.26819 40.2 7.19116C42.4398 5.22135 47.3097 1.28885 50.3281 3.59375Z" fill="#1F8AFC"/>
<path d="M20.7969 3.7998e-07C21.1386 0.0928 21.4697 0.209163 21.8027 0.329285C21.9018 0.364236 22.0009 0.399101 22.1 0.433885C22.3659 0.527451 22.6313 0.622205 22.8967 0.717185C23.1762 0.816978 23.4561 0.915632 23.736 1.0144C24.2422 1.19322 24.748 1.37294 25.2537 1.55313C25.7373 1.72543 26.2211 1.89694 26.7051 2.06818C27.1497 2.22556 27.5943 2.38299 28.0388 2.54087C29.3868 3.01946 30.7374 3.49061 32.0881 3.96146C33.7003 4.52353 35.3113 5.08929 36.9202 5.66086C37.0604 5.71065 37.2006 5.76045 37.3407 5.81024C37.4069 5.83375 37.4731 5.85726 37.5413 5.88149C38.261 6.13694 38.982 6.38896 39.7031 6.64063C39.5925 6.87101 39.4863 7.03302 39.3027 7.21191C39.2396 7.2743 39.2396 7.2743 39.1751 7.33795C39.0206 7.4809 38.8636 7.61967 38.7049 7.75787C37.7735 8.56989 36.8958 9.44011 36.0215 10.3125C35.9794 10.3544 35.9373 10.3963 35.8939 10.4394C35.4721 10.8597 35.0563 11.2814 34.6688 11.734C34.4622 11.9729 34.2448 12.2006 34.0244 12.4268C33.981 12.473 33.9377 12.5193 33.893 12.567C33.7647 12.6981 33.7647 12.6981 33.5312 12.8906C33.2129 12.8524 32.9658 12.6695 32.7011 12.5C32.648 12.4663 32.5948 12.4327 32.5399 12.398C31.8365 11.9508 31.1404 11.4921 30.4435 11.0349C30.0053 10.7474 29.5664 10.4612 29.1269 10.1758C29.0641 10.135 29.0014 10.0942 28.9367 10.0522C28.8117 9.97104 28.6867 9.88988 28.5617 9.80873C27.6022 9.18582 26.6435 8.56185 25.6854 7.93678C25.0057 7.49336 24.3252 7.05094 23.6446 6.60881C23.3203 6.39812 22.9961 6.18734 22.6719 5.97656C22.5416 5.89193 22.4114 5.80729 22.2812 5.72266C22.0208 5.55339 21.7604 5.38412 21.5 5.21484C21.4355 5.17291 21.3709 5.13098 21.3045 5.08778C21.1749 5.00354 21.0453 4.91929 20.9158 4.83501C20.5808 4.61717 20.2456 4.39967 19.91 4.18274C18.0186 2.9591 18.0186 2.9591 17.9062 2.73438C17.8682 2.50217 17.8588 2.33865 17.9902 2.13639C18.1146 1.99252 18.2447 1.85808 18.3799 1.72424C18.4287 1.67462 18.4775 1.62499 18.5278 1.57387C18.6312 1.46942 18.7353 1.36557 18.8399 1.26228C18.9992 1.10428 19.1554 0.943595 19.3116 0.782471C19.4126 0.681179 19.5138 0.580059 19.6152 0.479126C19.6615 0.431039 19.7079 0.382952 19.7556 0.333407C20.0819 0.0176754 20.3398 -0.0930979 20.7969 3.7998e-07Z" fill="#1F8AFC"/>
<path d="M47.3594 14.2969C47.3927 14.3932 47.4259 14.4895 47.4602 14.5888C48.0844 16.3948 48.7117 18.1995 49.3516 20C49.8281 21.3409 50.2976 22.6842 50.7627 24.0291C51.1456 25.1362 51.533 26.2416 51.9252 27.3454C52.1172 27.8861 52.3086 28.427 52.5 28.9679C52.6196 29.3056 52.7394 29.6432 52.8593 29.9808C53.0166 30.424 53.173 30.8676 53.3288 31.3113C53.3884 31.4805 53.4482 31.6497 53.5084 31.8187C53.5918 32.0529 53.6741 32.2875 53.7562 32.5223C53.7934 32.6258 53.7934 32.6258 53.8314 32.7314C53.9604 33.1044 54.0674 33.4305 54 33.8281C53.8721 34.0312 53.7124 34.1907 53.5407 34.3573C53.4935 34.4049 53.4462 34.4525 53.3975 34.5015C53.2975 34.6016 53.1968 34.701 53.0954 34.7997C52.941 34.9506 52.7895 35.104 52.6382 35.2579C52.5404 35.355 52.4425 35.4519 52.3444 35.5487C52.2994 35.5944 52.2544 35.6402 52.208 35.6873C51.9097 35.9738 51.6966 36.0914 51.2656 36.0938C50.8347 35.792 50.5871 35.2733 50.3135 34.834C50.2025 34.658 50.0913 34.4821 49.9799 34.3063C49.9368 34.2382 49.9368 34.2382 49.8928 34.1688C49.5679 33.6573 49.2304 33.1544 48.8926 32.6514C48.4995 32.0654 48.1113 31.4777 47.7426 30.876C47.4199 30.3538 47.0761 29.8457 46.7344 29.3359C46.3302 28.7329 45.9295 28.129 45.5492 27.5106C45.2418 27.013 44.9212 26.5242 44.6006 26.0352C44.5718 25.9913 44.543 25.9474 44.5134 25.9022C44.3701 25.6835 44.2267 25.4649 44.0833 25.2464C43.8528 24.8946 43.6235 24.5421 43.3945 24.1895C43.354 24.1271 43.3135 24.0648 43.2718 24.0006C43.0628 23.6788 42.854 23.3569 42.6453 23.035C42.602 22.9681 42.5586 22.9013 42.5139 22.8325C42.4282 22.7004 42.3427 22.5682 42.2573 22.4359C42.0596 22.1306 41.8594 21.8279 41.6505 21.5302C41.5949 21.4501 41.5949 21.4501 41.5382 21.3685C41.4693 21.2698 41.3995 21.1718 41.3286 21.0746C41.1889 20.8735 41.1094 20.7419 41.1091 20.4938C41.2052 20.2715 41.3073 20.1775 41.4951 20.0244C41.9757 19.6132 42.4161 19.1664 42.8595 18.7156C43.1803 18.3914 43.5074 18.0824 43.8531 17.785C44.0825 17.5839 44.298 17.3699 44.5127 17.1533C44.5568 17.1091 44.6009 17.0648 44.6463 17.0192C44.9163 16.7464 45.1732 16.4665 45.4215 16.1737C45.6036 15.9695 45.7975 15.778 45.9922 15.5859C46.2939 15.2876 46.5821 14.9843 46.8564 14.6606C47.1722 14.2969 47.1722 14.2969 47.3594 14.2969Z" fill="#1F8AFC"/>
<path d="M30.1719 29.9219C30.5798 31.3895 30.9823 32.8586 31.3717 34.3313C31.4464 34.6141 31.5216 34.8968 31.5978 35.1792C31.6734 35.4597 31.748 35.7404 31.8218 36.0213C31.8496 36.1265 31.8778 36.2316 31.9064 36.3366C31.9459 36.4819 31.9839 36.6276 32.0219 36.7733C32.0437 36.8555 32.0656 36.9377 32.0882 37.0223C32.1387 37.3563 32.1348 37.6651 31.9581 37.9613C31.9025 38.0178 31.9025 38.0178 31.8459 38.0754C31.7828 38.141 31.7828 38.141 31.7185 38.208C31.6499 38.2755 31.6499 38.2755 31.5799 38.3444C31.5092 38.4161 31.5092 38.4161 31.4371 38.4892C31.3374 38.5895 31.2372 38.6892 31.1364 38.7884C30.9827 38.9401 30.8319 39.0944 30.6812 39.2491C30.5838 39.3465 30.4863 39.4437 30.3885 39.5407C30.3438 39.5868 30.299 39.633 30.2528 39.6805C30.0153 39.91 29.9041 39.9934 29.5675 40.0434C29.3125 40 29.3125 40 29.1769 39.9102C29.0477 39.721 28.9354 39.5281 28.8257 39.3268C28.7765 39.237 28.7273 39.1471 28.6766 39.0546C28.6233 38.9563 28.5699 38.858 28.5166 38.7598C28.4609 38.6579 28.4052 38.5561 28.3494 38.4542C28.2333 38.2423 28.1175 38.0302 28.0018 37.818C27.7579 37.3711 27.5123 36.9252 27.2665 36.4794C27.1887 36.3383 27.1111 36.1972 27.0336 36.056C26.7836 35.6018 26.5306 35.1497 26.2711 34.7009C26.2232 34.6177 26.1753 34.5345 26.1259 34.4488C26.0357 34.2927 25.9448 34.137 25.8531 33.9817C25.8135 33.9131 25.7739 33.8445 25.7331 33.7738C25.6981 33.7142 25.6631 33.6545 25.627 33.5931C25.5625 33.4375 25.5625 33.4375 25.6406 33.2031C25.8299 33.0573 26.0192 32.9218 26.2168 32.7881C26.3384 32.704 26.46 32.6198 26.5815 32.5354C26.6451 32.4913 26.7086 32.4473 26.7742 32.4019C27.7643 31.7085 28.7588 30.9912 29.6755 30.2018C30.0005 29.9219 30.0005 29.9219 30.1719 29.9219Z" fill="#1F8AFC"/>
<path d="M17.4574 22.0291C17.5195 22.0454 17.5816 22.0618 17.6455 22.0787C17.8495 22.1327 18.0532 22.1877 18.2569 22.2427C18.3996 22.2808 18.5423 22.3187 18.6851 22.3567C19.0604 22.4565 19.4354 22.5572 19.8104 22.6581C20.1151 22.7399 20.4199 22.8211 20.7247 22.9022C21.0903 22.9996 21.4558 23.0972 21.8213 23.1949C21.8902 23.2133 21.9591 23.2317 22.0301 23.2507C22.7157 23.4341 23.4 23.6185 24.0781 23.8281C23.8126 24.2461 23.5273 24.6421 23.2187 25.0293C22.8233 25.526 22.4451 26.0339 22.0699 26.5459C21.6243 27.154 21.1723 27.7572 20.7187 28.3594C20.4253 28.3132 20.203 28.2297 19.943 28.0872C19.869 28.0468 19.7949 28.0065 19.7186 27.965C19.6394 27.9211 19.5602 27.8772 19.4785 27.832C19.3951 27.7864 19.3118 27.7408 19.2259 27.6937C18.6031 27.3517 17.985 27.0017 17.3682 26.6491C16.927 26.3984 16.4822 26.1559 16.0334 25.9192C15.9802 25.8911 15.9269 25.863 15.8721 25.834C15.6091 25.6953 15.3458 25.5573 15.082 25.4203C14.9855 25.3696 14.889 25.3189 14.7925 25.2682C14.7074 25.224 14.6223 25.1797 14.5346 25.1341C14.3104 24.9987 14.1542 24.8996 14 24.6875C13.9491 24.4207 13.9368 24.241 14.0854 24.005C14.2091 23.859 14.3395 23.7253 14.4764 23.5916C14.5499 23.5173 14.5499 23.5173 14.6248 23.4416C14.7285 23.3375 14.8329 23.2341 14.9379 23.1314C15.0981 22.9741 15.2552 22.8141 15.4122 22.6537C15.5135 22.5527 15.615 22.452 15.7166 22.3514C15.7633 22.3035 15.8101 22.2557 15.8582 22.2064C15.9035 22.1628 15.9489 22.1192 15.9956 22.0743C16.0346 22.0357 16.0736 21.9971 16.1138 21.9573C16.5261 21.7337 17.0321 21.9128 17.4574 22.0291Z" fill="#1F8AFC"/>
</g>
<path d="M67.7171 39L61.2531 17.656H65.0611L70.1491 35.832H69.4131L74.7891 17.656H77.8291L83.3331 36.088H82.4371L87.5251 17.656H91.3331L84.8371 39H81.3171L75.8771 21.592H76.7411L71.2691 39H67.7171ZM98.7389 39.48C97.9069 39.48 97.1069 39.3947 96.3389 39.224C95.5709 39.0747 94.8669 38.808 94.2269 38.424C93.6082 38.04 93.1069 37.5173 92.7229 36.856C92.3602 36.1733 92.1789 35.3307 92.1789 34.328C92.1789 33.1333 92.4135 32.152 92.8829 31.384C93.3522 30.616 94.0242 30.04 94.8989 29.656C95.7735 29.272 96.8189 29.08 98.0349 29.08C98.8455 29.08 99.5709 29.144 100.211 29.272C100.872 29.4 101.459 29.5813 101.971 29.816C102.504 30.0293 102.952 30.2747 103.315 30.552L103.667 32.76C103.198 32.44 102.568 32.1733 101.779 31.96C100.99 31.7253 100.136 31.608 99.2189 31.608C98.0029 31.608 97.0749 31.8213 96.4349 32.248C95.8162 32.6747 95.5069 33.3147 95.5069 34.168C95.5069 34.808 95.6882 35.3307 96.0509 35.736C96.4135 36.12 96.8615 36.408 97.3949 36.6C97.9495 36.7707 98.5255 36.856 99.1229 36.856C100.382 36.856 101.31 36.7707 101.907 36.6C102.504 36.4293 102.803 36.0347 102.803 35.416V28.696C102.803 27.5653 102.462 26.744 101.779 26.232C101.096 25.6987 100.126 25.432 98.8669 25.432C97.9709 25.432 97.0429 25.5813 96.0829 25.88C95.1229 26.1573 94.3335 26.552 93.7149 27.064V23.928C94.3122 23.5227 95.1762 23.2027 96.3069 22.968C97.4589 22.712 98.6429 22.584 99.8589 22.584C100.456 22.584 101.054 22.648 101.651 22.776C102.27 22.8827 102.846 23.064 103.379 23.32C103.912 23.5547 104.382 23.8853 104.787 24.312C105.214 24.7173 105.544 25.2187 105.779 25.816C106.014 26.4133 106.131 27.1173 106.131 27.928V35.608C106.131 36.6533 105.8 37.464 105.139 38.04C104.499 38.5947 103.624 38.968 102.515 39.16C101.406 39.3733 100.147 39.48 98.7389 39.48ZM110.852 24.248C111.322 24.0133 111.844 23.8 112.42 23.608C113.018 23.3947 113.647 23.2133 114.308 23.064C114.97 22.9147 115.642 22.7973 116.324 22.712C117.007 22.6267 117.668 22.584 118.308 22.584C119.823 22.584 121.06 22.7973 122.02 23.224C122.98 23.6293 123.695 24.2693 124.164 25.144C124.634 25.9973 124.868 27.0747 124.868 28.376V39H121.508V28.824C121.508 28.4187 121.455 28.024 121.348 27.64C121.263 27.2347 121.082 26.872 120.804 26.552C120.548 26.2107 120.164 25.944 119.652 25.752C119.162 25.56 118.511 25.464 117.7 25.464C117.124 25.464 116.527 25.5173 115.908 25.624C115.311 25.7307 114.746 25.88 114.212 26.072V39H110.852V24.248ZM136.706 39.48C135.725 39.48 134.765 39.352 133.826 39.096C132.888 38.8613 132.034 38.4347 131.266 37.816C130.498 37.176 129.89 36.2907 129.442 35.16C128.994 34.0293 128.77 32.568 128.77 30.776C128.77 28.2373 129.389 26.232 130.626 24.76C131.864 23.288 133.741 22.552 136.258 22.552C136.664 22.552 137.165 22.6053 137.762 22.712C138.36 22.8187 138.968 22.9787 139.586 23.192C140.205 23.384 140.728 23.64 141.154 23.96L140.29 25.08V16.216H143.618V35.64C143.618 36.3013 143.405 36.8773 142.978 37.368C142.573 37.8587 142.029 38.264 141.346 38.584C140.664 38.8827 139.917 39.1067 139.106 39.256C138.296 39.4053 137.496 39.48 136.706 39.48ZM136.802 36.568C137.762 36.568 138.584 36.4507 139.266 36.216C139.949 35.9813 140.29 35.672 140.29 35.288V26.36C139.736 26.04 139.149 25.8053 138.53 25.656C137.912 25.5067 137.314 25.432 136.738 25.432C135.693 25.432 134.829 25.6453 134.146 26.072C133.485 26.4773 132.994 27.0853 132.674 27.896C132.354 28.6853 132.194 29.6667 132.194 30.84C132.194 31.9067 132.322 32.8773 132.578 33.752C132.834 34.6053 133.293 35.288 133.954 35.8C134.637 36.312 135.586 36.568 136.802 36.568ZM155.264 39.48C153.686 39.48 152.31 39.16 151.136 38.52C149.984 37.88 149.088 36.9307 148.448 35.672C147.83 34.4133 147.52 32.8773 147.52 31.064C147.52 28.2693 148.171 26.1573 149.472 24.728C150.795 23.2773 152.63 22.552 154.976 22.552C156.704 22.552 158.102 22.936 159.168 23.704C160.235 24.472 161.003 25.5493 161.472 26.936C161.963 28.3013 162.198 29.9013 162.176 31.736H149.536L149.44 29.24H159.616L158.816 30.04C158.752 28.3973 158.411 27.2027 157.792 26.456C157.174 25.688 156.203 25.304 154.88 25.304C154.027 25.304 153.302 25.4853 152.704 25.848C152.107 26.1893 151.648 26.7867 151.328 27.64C151.03 28.472 150.88 29.624 150.88 31.096C150.88 32.888 151.296 34.2533 152.128 35.192C152.96 36.1093 154.187 36.568 155.808 36.568C156.534 36.568 157.206 36.504 157.824 36.376C158.464 36.248 159.051 36.088 159.584 35.896C160.118 35.6827 160.576 35.48 160.96 35.288V38.392C160.214 38.712 159.371 38.968 158.432 39.16C157.494 39.3733 156.438 39.48 155.264 39.48ZM166.04 39V24.408C166.317 24.2373 166.829 24.0027 167.576 23.704C168.323 23.4053 169.208 23.1493 170.232 22.936C171.256 22.7013 172.291 22.584 173.336 22.584C173.869 22.584 174.307 22.6267 174.648 22.712C174.989 22.7973 175.277 22.8933 175.512 23V25.688C175.021 25.624 174.509 25.5813 173.976 25.56C173.443 25.5173 172.909 25.5173 172.376 25.56C171.843 25.5813 171.32 25.624 170.808 25.688C170.296 25.752 169.827 25.816 169.4 25.88V39H166.04ZM178.981 39V17.656H182.533V39H178.981ZM187.415 24.248C187.884 24.0133 188.407 23.8 188.983 23.608C189.58 23.3947 190.21 23.2133 190.871 23.064C191.532 22.9147 192.204 22.7973 192.887 22.712C193.57 22.6267 194.231 22.584 194.871 22.584C196.386 22.584 197.623 22.7973 198.583 23.224C199.543 23.6293 200.258 24.2693 200.727 25.144C201.196 25.9973 201.431 27.0747 201.431 28.376V39H198.071V28.824C198.071 28.4187 198.018 28.024 197.911 27.64C197.826 27.2347 197.644 26.872 197.367 26.552C197.111 26.2107 196.727 25.944 196.215 25.752C195.724 25.56 195.074 25.464 194.263 25.464C193.687 25.464 193.09 25.5173 192.471 25.624C191.874 25.7307 191.308 25.88 190.775 26.072V39H187.415V24.248ZM206.165 24.248C206.634 24.0133 207.157 23.8 207.733 23.608C208.33 23.3947 208.96 23.2133 209.621 23.064C210.282 22.9147 210.954 22.7973 211.637 22.712C212.32 22.6267 212.981 22.584 213.621 22.584C215.136 22.584 216.373 22.7973 217.333 23.224C218.293 23.6293 219.008 24.2693 219.477 25.144C219.946 25.9973 220.181 27.0747 220.181 28.376V39H216.821V28.824C216.821 28.4187 216.768 28.024 216.661 27.64C216.576 27.2347 216.394 26.872 216.117 26.552C215.861 26.2107 215.477 25.944 214.965 25.752C214.474 25.56 213.824 25.464 213.013 25.464C212.437 25.464 211.84 25.5173 211.221 25.624C210.624 25.7307 210.058 25.88 209.525 26.072V39H206.165V24.248Z" fill="#1F8AFC"/>
<path d="M96.4895 50.704C96.4895 51.348 96.3875 51.934 96.1835 52.462C95.9795 52.99 95.6915 53.442 95.3195 53.818C94.9475 54.194 94.4995 54.486 93.9755 54.694C93.4555 54.898 92.8795 55 92.2475 55H89.0375V46.402H92.2475C92.8795 46.402 93.4555 46.506 93.9755 46.714C94.4995 46.918 94.9475 47.21 95.3195 47.59C95.6915 47.966 95.9795 48.418 96.1835 48.946C96.3875 49.474 96.4895 50.06 96.4895 50.704ZM95.2955 50.704C95.2955 50.176 95.2235 49.704 95.0795 49.288C94.9355 48.872 94.7315 48.52 94.4675 48.232C94.2035 47.944 93.8835 47.724 93.5075 47.572C93.1315 47.42 92.7115 47.344 92.2475 47.344H90.2015V54.058H92.2475C92.7115 54.058 93.1315 53.982 93.5075 53.83C93.8835 53.678 94.2035 53.46 94.4675 53.176C94.7315 52.888 94.9355 52.536 95.0795 52.12C95.2235 51.704 95.2955 51.232 95.2955 50.704ZM98.9252 48.922V55H97.8572V48.922H98.9252ZM99.1532 47.014C99.1532 47.118 99.1312 47.216 99.0872 47.308C99.0472 47.396 98.9912 47.476 98.9192 47.548C98.8512 47.616 98.7692 47.67 98.6732 47.71C98.5812 47.75 98.4832 47.77 98.3792 47.77C98.2752 47.77 98.1772 47.75 98.0852 47.71C97.9972 47.67 97.9192 47.616 97.8512 47.548C97.7832 47.476 97.7292 47.396 97.6892 47.308C97.6492 47.216 97.6292 47.118 97.6292 47.014C97.6292 46.91 97.6492 46.812 97.6892 46.72C97.7292 46.624 97.7832 46.542 97.8512 46.474C97.9192 46.402 97.9972 46.346 98.0852 46.306C98.1772 46.266 98.2752 46.246 98.3792 46.246C98.4832 46.246 98.5812 46.266 98.6732 46.306C98.7692 46.346 98.8512 46.402 98.9192 46.474C98.9912 46.542 99.0472 46.624 99.0872 46.72C99.1312 46.812 99.1532 46.91 99.1532 47.014ZM104.22 49.924C104.172 50.012 104.098 50.056 103.998 50.056C103.938 50.056 103.87 50.034 103.794 49.99C103.718 49.946 103.624 49.898 103.512 49.846C103.404 49.79 103.274 49.74 103.122 49.696C102.97 49.648 102.79 49.624 102.582 49.624C102.402 49.624 102.24 49.648 102.096 49.696C101.952 49.74 101.828 49.802 101.724 49.882C101.624 49.962 101.546 50.056 101.49 50.164C101.438 50.268 101.412 50.382 101.412 50.506C101.412 50.662 101.456 50.792 101.544 50.896C101.636 51 101.756 51.09 101.904 51.166C102.052 51.242 102.22 51.31 102.408 51.37C102.596 51.426 102.788 51.488 102.984 51.556C103.184 51.62 103.378 51.692 103.566 51.772C103.754 51.852 103.922 51.952 104.07 52.072C104.218 52.192 104.336 52.34 104.424 52.516C104.516 52.688 104.562 52.896 104.562 53.14C104.562 53.42 104.512 53.68 104.412 53.92C104.312 54.156 104.164 54.362 103.968 54.538C103.772 54.71 103.532 54.846 103.248 54.946C102.964 55.046 102.636 55.096 102.264 55.096C101.84 55.096 101.456 55.028 101.112 54.892C100.768 54.752 100.476 54.574 100.236 54.358L100.488 53.95C100.52 53.898 100.558 53.858 100.602 53.83C100.646 53.802 100.702 53.788 100.77 53.788C100.842 53.788 100.918 53.816 100.998 53.872C101.078 53.928 101.174 53.99 101.286 54.058C101.402 54.126 101.542 54.188 101.706 54.244C101.87 54.3 102.074 54.328 102.318 54.328C102.526 54.328 102.708 54.302 102.864 54.25C103.02 54.194 103.15 54.12 103.254 54.028C103.358 53.936 103.434 53.83 103.482 53.71C103.534 53.59 103.56 53.462 103.56 53.326C103.56 53.158 103.514 53.02 103.422 52.912C103.334 52.8 103.216 52.706 103.068 52.63C102.92 52.55 102.75 52.482 102.558 52.426C102.37 52.366 102.176 52.304 101.976 52.24C101.78 52.176 101.586 52.104 101.394 52.024C101.206 51.94 101.038 51.836 100.89 51.712C100.742 51.588 100.622 51.436 100.53 51.256C100.442 51.072 100.398 50.85 100.398 50.59C100.398 50.358 100.446 50.136 100.542 49.924C100.638 49.708 100.778 49.52 100.962 49.36C101.146 49.196 101.372 49.066 101.64 48.97C101.908 48.874 102.214 48.826 102.558 48.826C102.958 48.826 103.316 48.89 103.632 49.018C103.952 49.142 104.228 49.314 104.46 49.534L104.22 49.924ZM110.101 50.002C110.069 50.046 110.037 50.08 110.005 50.104C109.973 50.128 109.929 50.14 109.873 50.14C109.813 50.14 109.747 50.116 109.675 50.068C109.603 50.016 109.513 49.96 109.405 49.9C109.301 49.84 109.171 49.786 109.015 49.738C108.863 49.686 108.675 49.66 108.451 49.66C108.151 49.66 107.887 49.714 107.659 49.822C107.431 49.926 107.239 50.078 107.083 50.278C106.931 50.478 106.815 50.72 106.735 51.004C106.659 51.288 106.621 51.606 106.621 51.958C106.621 52.326 106.663 52.654 106.747 52.942C106.831 53.226 106.949 53.466 107.101 53.662C107.257 53.854 107.443 54.002 107.659 54.106C107.879 54.206 108.125 54.256 108.397 54.256C108.657 54.256 108.871 54.226 109.039 54.166C109.207 54.102 109.345 54.032 109.453 53.956C109.565 53.88 109.657 53.812 109.729 53.752C109.805 53.688 109.879 53.656 109.951 53.656C110.039 53.656 110.107 53.69 110.155 53.758L110.455 54.148C110.323 54.312 110.173 54.452 110.005 54.568C109.837 54.684 109.655 54.782 109.459 54.862C109.267 54.938 109.065 54.994 108.853 55.03C108.641 55.066 108.425 55.084 108.205 55.084C107.825 55.084 107.471 55.014 107.143 54.874C106.819 54.734 106.537 54.532 106.297 54.268C106.057 54 105.869 53.672 105.733 53.284C105.597 52.896 105.529 52.454 105.529 51.958C105.529 51.506 105.591 51.088 105.715 50.704C105.843 50.32 106.027 49.99 106.267 49.714C106.511 49.434 106.809 49.216 107.161 49.06C107.517 48.904 107.925 48.826 108.385 48.826C108.813 48.826 109.189 48.896 109.513 49.036C109.841 49.172 110.131 49.366 110.383 49.618L110.101 50.002ZM114.058 48.826C114.502 48.826 114.902 48.9 115.258 49.048C115.614 49.196 115.918 49.406 116.17 49.678C116.422 49.95 116.614 50.28 116.746 50.668C116.882 51.052 116.95 51.482 116.95 51.958C116.95 52.438 116.882 52.87 116.746 53.254C116.614 53.638 116.422 53.966 116.17 54.238C115.918 54.51 115.614 54.72 115.258 54.868C114.902 55.012 114.502 55.084 114.058 55.084C113.61 55.084 113.206 55.012 112.846 54.868C112.49 54.72 112.186 54.51 111.934 54.238C111.682 53.966 111.488 53.638 111.352 53.254C111.22 52.87 111.154 52.438 111.154 51.958C111.154 51.482 111.22 51.052 111.352 50.668C111.488 50.28 111.682 49.95 111.934 49.678C112.186 49.406 112.49 49.196 112.846 49.048C113.206 48.9 113.61 48.826 114.058 48.826ZM114.058 54.25C114.658 54.25 115.106 54.05 115.402 53.65C115.698 53.246 115.846 52.684 115.846 51.964C115.846 51.24 115.698 50.676 115.402 50.272C115.106 49.868 114.658 49.666 114.058 49.666C113.754 49.666 113.488 49.718 113.26 49.822C113.036 49.926 112.848 50.076 112.696 50.272C112.548 50.468 112.436 50.71 112.36 50.998C112.288 51.282 112.252 51.604 112.252 51.964C112.252 52.684 112.4 53.246 112.696 53.65C112.996 54.05 113.45 54.25 114.058 54.25ZM123.349 48.922L120.871 55H119.911L117.433 48.922H118.303C118.391 48.922 118.463 48.944 118.519 48.988C118.575 49.032 118.613 49.084 118.633 49.144L120.175 53.056C120.223 53.204 120.265 53.348 120.301 53.488C120.337 53.628 120.371 53.768 120.403 53.908C120.435 53.768 120.469 53.628 120.505 53.488C120.541 53.348 120.585 53.204 120.637 53.056L122.197 49.144C122.221 49.08 122.261 49.028 122.317 48.988C122.373 48.944 122.439 48.922 122.515 48.922H123.349ZM128.232 51.298C128.232 51.05 128.196 50.824 128.124 50.62C128.056 50.412 127.954 50.234 127.818 50.086C127.686 49.934 127.524 49.818 127.332 49.738C127.14 49.654 126.922 49.612 126.678 49.612C126.166 49.612 125.76 49.762 125.46 50.062C125.164 50.358 124.98 50.77 124.908 51.298H128.232ZM129.096 54.148C128.964 54.308 128.806 54.448 128.622 54.568C128.438 54.684 128.24 54.78 128.028 54.856C127.82 54.932 127.604 54.988 127.38 55.024C127.156 55.064 126.934 55.084 126.714 55.084C126.294 55.084 125.906 55.014 125.55 54.874C125.198 54.73 124.892 54.522 124.632 54.25C124.376 53.974 124.176 53.634 124.032 53.23C123.888 52.826 123.816 52.362 123.816 51.838C123.816 51.414 123.88 51.018 124.008 50.65C124.14 50.282 124.328 49.964 124.572 49.696C124.816 49.424 125.114 49.212 125.466 49.06C125.818 48.904 126.214 48.826 126.654 48.826C127.018 48.826 127.354 48.888 127.662 49.012C127.974 49.132 128.242 49.308 128.466 49.54C128.694 49.768 128.872 50.052 129 50.392C129.128 50.728 129.192 51.112 129.192 51.544C129.192 51.712 129.174 51.824 129.138 51.88C129.102 51.936 129.034 51.964 128.934 51.964H124.872C124.884 52.348 124.936 52.682 125.028 52.966C125.124 53.25 125.256 53.488 125.424 53.68C125.592 53.868 125.792 54.01 126.024 54.106C126.256 54.198 126.516 54.244 126.804 54.244C127.072 54.244 127.302 54.214 127.494 54.154C127.69 54.09 127.858 54.022 127.998 53.95C128.138 53.878 128.254 53.812 128.346 53.752C128.442 53.688 128.524 53.656 128.592 53.656C128.68 53.656 128.748 53.69 128.796 53.758L129.096 54.148ZM131.518 50.14C131.71 49.724 131.946 49.4 132.226 49.168C132.506 48.932 132.848 48.814 133.252 48.814C133.38 48.814 133.502 48.828 133.618 48.856C133.738 48.884 133.844 48.928 133.936 48.988L133.858 49.786C133.834 49.886 133.774 49.936 133.678 49.936C133.622 49.936 133.54 49.924 133.432 49.9C133.324 49.876 133.202 49.864 133.066 49.864C132.874 49.864 132.702 49.892 132.55 49.948C132.402 50.004 132.268 50.088 132.148 50.2C132.032 50.308 131.926 50.444 131.83 50.608C131.738 50.768 131.654 50.952 131.578 51.16V55H130.504V48.922H131.116C131.232 48.922 131.312 48.944 131.356 48.988C131.4 49.032 131.43 49.108 131.446 49.216L131.518 50.14ZM134.329 56.452C134.297 56.424 134.275 56.398 134.263 56.374C134.251 56.35 134.245 56.32 134.245 56.284C134.245 56.256 134.253 56.228 134.269 56.2C134.289 56.172 134.311 56.146 134.335 56.122C134.375 56.078 134.425 56.02 134.485 55.948C134.549 55.876 134.613 55.79 134.677 55.69C134.741 55.594 134.799 55.486 134.851 55.366C134.907 55.25 134.947 55.126 134.971 54.994C134.959 54.998 134.945 55 134.929 55C134.917 55 134.905 55 134.893 55C134.685 55 134.515 54.932 134.383 54.796C134.255 54.656 134.191 54.478 134.191 54.262C134.191 54.074 134.255 53.914 134.383 53.782C134.515 53.65 134.689 53.584 134.905 53.584C135.025 53.584 135.131 53.606 135.223 53.65C135.315 53.694 135.391 53.756 135.451 53.836C135.515 53.912 135.563 54.002 135.595 54.106C135.627 54.206 135.643 54.316 135.643 54.436C135.643 54.616 135.617 54.804 135.565 55C135.517 55.192 135.443 55.382 135.343 55.57C135.247 55.762 135.129 55.948 134.989 56.128C134.849 56.308 134.689 56.474 134.509 56.626L134.329 56.452ZM143.454 54.076C143.786 54.076 144.072 54.038 144.312 53.962C144.552 53.886 144.748 53.78 144.9 53.644C145.056 53.504 145.17 53.34 145.242 53.152C145.314 52.96 145.35 52.75 145.35 52.522C145.35 52.078 145.192 51.728 144.876 51.472C144.56 51.212 144.086 51.082 143.454 51.082H141.594V54.076H143.454ZM141.594 47.32V50.254H143.13C143.458 50.254 143.742 50.218 143.982 50.146C144.226 50.074 144.426 49.974 144.582 49.846C144.742 49.718 144.86 49.564 144.936 49.384C145.012 49.2 145.05 49 145.05 48.784C145.05 48.276 144.898 47.906 144.594 47.674C144.29 47.438 143.818 47.32 143.178 47.32H141.594ZM143.178 46.402C143.706 46.402 144.16 46.454 144.54 46.558C144.924 46.662 145.238 46.81 145.482 47.002C145.73 47.194 145.912 47.43 146.028 47.71C146.144 47.986 146.202 48.298 146.202 48.646C146.202 48.858 146.168 49.062 146.1 49.258C146.036 49.45 145.938 49.63 145.806 49.798C145.674 49.966 145.506 50.118 145.302 50.254C145.102 50.386 144.866 50.494 144.594 50.578C145.226 50.698 145.7 50.924 146.016 51.256C146.336 51.584 146.496 52.016 146.496 52.552C146.496 52.916 146.428 53.248 146.292 53.548C146.16 53.848 145.964 54.106 145.704 54.322C145.448 54.538 145.132 54.706 144.756 54.826C144.38 54.942 143.952 55 143.472 55H140.436V46.402H143.178ZM150.41 48.826C150.854 48.826 151.254 48.9 151.61 49.048C151.966 49.196 152.27 49.406 152.522 49.678C152.774 49.95 152.966 50.28 153.098 50.668C153.234 51.052 153.302 51.482 153.302 51.958C153.302 52.438 153.234 52.87 153.098 53.254C152.966 53.638 152.774 53.966 152.522 54.238C152.27 54.51 151.966 54.72 151.61 54.868C151.254 55.012 150.854 55.084 150.41 55.084C149.962 55.084 149.558 55.012 149.198 54.868C148.842 54.72 148.538 54.51 148.286 54.238C148.034 53.966 147.84 53.638 147.704 53.254C147.572 52.87 147.506 52.438 147.506 51.958C147.506 51.482 147.572 51.052 147.704 50.668C147.84 50.28 148.034 49.95 148.286 49.678C148.538 49.406 148.842 49.196 149.198 49.048C149.558 48.9 149.962 48.826 150.41 48.826ZM150.41 54.25C151.01 54.25 151.458 54.05 151.754 53.65C152.05 53.246 152.198 52.684 152.198 51.964C152.198 51.24 152.05 50.676 151.754 50.272C151.458 49.868 151.01 49.666 150.41 49.666C150.106 49.666 149.84 49.718 149.612 49.822C149.388 49.926 149.2 50.076 149.048 50.272C148.9 50.468 148.788 50.71 148.712 50.998C148.64 51.282 148.604 51.604 148.604 51.964C148.604 52.684 148.752 53.246 149.048 53.65C149.348 54.05 149.802 54.25 150.41 54.25ZM157.219 48.826C157.663 48.826 158.063 48.9 158.419 49.048C158.775 49.196 159.079 49.406 159.331 49.678C159.583 49.95 159.775 50.28 159.907 50.668C160.043 51.052 160.111 51.482 160.111 51.958C160.111 52.438 160.043 52.87 159.907 53.254C159.775 53.638 159.583 53.966 159.331 54.238C159.079 54.51 158.775 54.72 158.419 54.868C158.063 55.012 157.663 55.084 157.219 55.084C156.771 55.084 156.367 55.012 156.007 54.868C155.651 54.72 155.347 54.51 155.095 54.238C154.843 53.966 154.649 53.638 154.513 53.254C154.381 52.87 154.315 52.438 154.315 51.958C154.315 51.482 154.381 51.052 154.513 50.668C154.649 50.28 154.843 49.95 155.095 49.678C155.347 49.406 155.651 49.196 156.007 49.048C156.367 48.9 156.771 48.826 157.219 48.826ZM157.219 54.25C157.819 54.25 158.267 54.05 158.563 53.65C158.859 53.246 159.007 52.684 159.007 51.964C159.007 51.24 158.859 50.676 158.563 50.272C158.267 49.868 157.819 49.666 157.219 49.666C156.915 49.666 156.649 49.718 156.421 49.822C156.197 49.926 156.009 50.076 155.857 50.272C155.709 50.468 155.597 50.71 155.521 50.998C155.449 51.282 155.413 51.604 155.413 51.964C155.413 52.684 155.561 53.246 155.857 53.65C156.157 54.05 156.611 54.25 157.219 54.25ZM162.539 46.162V51.364H162.815C162.895 51.364 162.961 51.354 163.013 51.334C163.069 51.31 163.127 51.264 163.187 51.196L165.107 49.138C165.163 49.07 165.221 49.018 165.281 48.982C165.345 48.942 165.429 48.922 165.533 48.922H166.499L164.261 51.304C164.153 51.44 164.037 51.546 163.913 51.622C163.985 51.67 164.049 51.726 164.105 51.79C164.165 51.85 164.221 51.92 164.273 52L166.649 55H165.695C165.603 55 165.523 54.986 165.455 54.958C165.391 54.926 165.335 54.87 165.287 54.79L163.289 52.3C163.229 52.216 163.169 52.162 163.109 52.138C163.053 52.11 162.965 52.096 162.845 52.096H162.539V55H161.465V46.162H162.539ZM167.493 56.452C167.461 56.424 167.439 56.398 167.427 56.374C167.415 56.35 167.409 56.32 167.409 56.284C167.409 56.256 167.417 56.228 167.433 56.2C167.453 56.172 167.475 56.146 167.499 56.122C167.539 56.078 167.589 56.02 167.649 55.948C167.713 55.876 167.777 55.79 167.841 55.69C167.905 55.594 167.963 55.486 168.015 55.366C168.071 55.25 168.111 55.126 168.135 54.994C168.123 54.998 168.109 55 168.093 55C168.081 55 168.069 55 168.057 55C167.849 55 167.679 54.932 167.547 54.796C167.419 54.656 167.355 54.478 167.355 54.262C167.355 54.074 167.419 53.914 167.547 53.782C167.679 53.65 167.853 53.584 168.069 53.584C168.189 53.584 168.295 53.606 168.387 53.65C168.479 53.694 168.555 53.756 168.615 53.836C168.679 53.912 168.727 54.002 168.759 54.106C168.791 54.206 168.807 54.316 168.807 54.436C168.807 54.616 168.781 54.804 168.729 55C168.681 55.192 168.607 55.382 168.507 55.57C168.411 55.762 168.293 55.948 168.153 56.128C168.013 56.308 167.853 56.474 167.673 56.626L167.493 56.452ZM177.998 47.746C177.962 47.806 177.922 47.852 177.878 47.884C177.838 47.912 177.788 47.926 177.728 47.926C177.66 47.926 177.58 47.892 177.488 47.824C177.396 47.756 177.28 47.682 177.14 47.602C177.004 47.518 176.838 47.442 176.642 47.374C176.45 47.306 176.216 47.272 175.94 47.272C175.68 47.272 175.45 47.308 175.25 47.38C175.054 47.448 174.888 47.542 174.752 47.662C174.62 47.782 174.52 47.924 174.452 48.088C174.384 48.248 174.35 48.422 174.35 48.61C174.35 48.85 174.408 49.05 174.524 49.21C174.644 49.366 174.8 49.5 174.992 49.612C175.188 49.724 175.408 49.822 175.652 49.906C175.9 49.986 176.152 50.07 176.408 50.158C176.668 50.246 176.92 50.346 177.164 50.458C177.412 50.566 177.632 50.704 177.824 50.872C178.02 51.04 178.176 51.246 178.292 51.49C178.412 51.734 178.472 52.034 178.472 52.39C178.472 52.766 178.408 53.12 178.28 53.452C178.152 53.78 177.964 54.066 177.716 54.31C177.472 54.554 177.17 54.746 176.81 54.886C176.454 55.026 176.048 55.096 175.592 55.096C175.032 55.096 174.524 54.996 174.068 54.796C173.612 54.592 173.222 54.318 172.898 53.974L173.234 53.422C173.266 53.378 173.304 53.342 173.348 53.314C173.396 53.282 173.448 53.266 173.504 53.266C173.556 53.266 173.614 53.288 173.678 53.332C173.746 53.372 173.822 53.424 173.906 53.488C173.99 53.552 174.086 53.622 174.194 53.698C174.302 53.774 174.424 53.844 174.56 53.908C174.7 53.972 174.858 54.026 175.034 54.07C175.21 54.11 175.408 54.13 175.628 54.13C175.904 54.13 176.15 54.092 176.366 54.016C176.582 53.94 176.764 53.834 176.912 53.698C177.064 53.558 177.18 53.392 177.26 53.2C177.34 53.008 177.38 52.794 177.38 52.558C177.38 52.298 177.32 52.086 177.2 51.922C177.084 51.754 176.93 51.614 176.738 51.502C176.546 51.39 176.326 51.296 176.078 51.22C175.83 51.14 175.578 51.06 175.322 50.98C175.066 50.896 174.814 50.8 174.566 50.692C174.318 50.584 174.098 50.444 173.906 50.272C173.714 50.1 173.558 49.886 173.438 49.63C173.322 49.37 173.264 49.05 173.264 48.67C173.264 48.366 173.322 48.072 173.438 47.788C173.558 47.504 173.73 47.252 173.954 47.032C174.182 46.812 174.46 46.636 174.788 46.504C175.12 46.372 175.5 46.306 175.928 46.306C176.408 46.306 176.844 46.382 177.236 46.534C177.632 46.686 177.98 46.906 178.28 47.194L177.998 47.746ZM181.46 55.096C180.98 55.096 180.61 54.962 180.35 54.694C180.094 54.426 179.966 54.04 179.966 53.536V49.816H179.234C179.17 49.816 179.116 49.798 179.072 49.762C179.028 49.722 179.006 49.662 179.006 49.582V49.156L180.002 49.03L180.248 47.152C180.26 47.092 180.286 47.044 180.326 47.008C180.37 46.968 180.426 46.948 180.494 46.948H181.034V49.042H182.792V49.816H181.034V53.464C181.034 53.72 181.096 53.91 181.22 54.034C181.344 54.158 181.504 54.22 181.7 54.22C181.812 54.22 181.908 54.206 181.988 54.178C182.072 54.146 182.144 54.112 182.204 54.076C182.264 54.04 182.314 54.008 182.354 53.98C182.398 53.948 182.436 53.932 182.468 53.932C182.524 53.932 182.574 53.966 182.618 54.034L182.93 54.544C182.746 54.716 182.524 54.852 182.264 54.952C182.004 55.048 181.736 55.096 181.46 55.096ZM187.189 52.264C186.697 52.28 186.277 52.32 185.929 52.384C185.585 52.444 185.303 52.524 185.083 52.624C184.867 52.724 184.709 52.842 184.609 52.978C184.513 53.114 184.465 53.266 184.465 53.434C184.465 53.594 184.491 53.732 184.543 53.848C184.595 53.964 184.665 54.06 184.753 54.136C184.845 54.208 184.951 54.262 185.071 54.298C185.195 54.33 185.327 54.346 185.467 54.346C185.655 54.346 185.827 54.328 185.983 54.292C186.139 54.252 186.285 54.196 186.421 54.124C186.561 54.052 186.693 53.966 186.817 53.866C186.945 53.766 187.069 53.652 187.189 53.524V52.264ZM183.739 49.78C184.075 49.456 184.437 49.214 184.825 49.054C185.213 48.894 185.643 48.814 186.115 48.814C186.455 48.814 186.757 48.87 187.021 48.982C187.285 49.094 187.507 49.25 187.687 49.45C187.867 49.65 188.003 49.892 188.095 50.176C188.187 50.46 188.233 50.772 188.233 51.112V55H187.759C187.655 55 187.575 54.984 187.519 54.952C187.463 54.916 187.419 54.848 187.387 54.748L187.267 54.172C187.107 54.32 186.951 54.452 186.799 54.568C186.647 54.68 186.487 54.776 186.319 54.856C186.151 54.932 185.971 54.99 185.779 55.03C185.591 55.074 185.381 55.096 185.149 55.096C184.913 55.096 184.691 55.064 184.483 55C184.275 54.932 184.093 54.832 183.937 54.7C183.785 54.568 183.663 54.402 183.571 54.202C183.483 53.998 183.439 53.758 183.439 53.482C183.439 53.242 183.505 53.012 183.637 52.792C183.769 52.568 183.983 52.37 184.279 52.198C184.575 52.026 184.961 51.886 185.437 51.778C185.913 51.666 186.497 51.602 187.189 51.586V51.112C187.189 50.64 187.087 50.284 186.883 50.044C186.679 49.8 186.381 49.678 185.989 49.678C185.725 49.678 185.503 49.712 185.323 49.78C185.147 49.844 184.993 49.918 184.861 50.002C184.733 50.082 184.621 50.156 184.525 50.224C184.433 50.288 184.341 50.32 184.249 50.32C184.177 50.32 184.115 50.302 184.063 50.266C184.011 50.226 183.967 50.178 183.931 50.122L183.739 49.78ZM194.963 48.922L191.573 56.794C191.537 56.874 191.491 56.938 191.435 56.986C191.383 57.034 191.301 57.058 191.189 57.058H190.397L191.507 54.646L188.999 48.922H189.923C190.015 48.922 190.087 48.946 190.139 48.994C190.195 49.038 190.233 49.088 190.253 49.144L191.879 52.972C191.943 53.14 191.997 53.316 192.041 53.5C192.097 53.312 192.157 53.134 192.221 52.966L193.799 49.144C193.823 49.08 193.863 49.028 193.919 48.988C193.979 48.944 194.045 48.922 194.117 48.922H194.963Z" fill="#1F8AFC"/>
<line x1="200.5" y1="49.5" x2="220.5" y2="49.5" stroke="#1F8AFC"/>
<line x1="62.5" y1="49.5" x2="82.5" y2="49.5" stroke="#1F8AFC"/>
<defs>
<clipPath id="clip0_4_64">
<rect width="40" height="40" fill="white" transform="translate(14)"/>
</clipPath>
</defs>
</svg>
